<?xml version="1.0" encoding="UTF-8"?>
<svg width="1133px" height="213px" viewBox="0 0 1133 213" version="1.1" xmlns="http://www.w3.org/2000/svg" xmlns:xlink="http://www.w3.org/1999/xlink">
    <!-- Generator: Sketch 41.2 (35397) - http://www.bohemiancoding.com/sketch -->
    <title>3배의인심</title>
    <desc>Created with Sketch.</desc>
    <defs></defs>
    <g id="Page-1" stroke="none" stroke-width="1" fill="none" fill-rule="evenodd">
        <g id="3배의인심">
            <g id="Layer_1">
                <g id="Group" transform="translate(899.000000, 0.000000)" fill="#9E1D22">
                    <path d="M92.763,16.954 C89.504,19.825 64.86,23.278 64.307,22.821 C63.753,22.376 67.703,9.7 70.705,8.661 C73.713,7.612 94.624,15.322 92.763,16.954 M61.762,22.468 C61.214,24.517 50.655,23.929 49.411,23.992 C48.161,24.049 54.616,16.327 51.135,15.956 C47.659,15.562 44.919,20.864 44.594,23.906 C44.274,26.954 22.432,23.329 19.716,22.359 C15.669,20.921 13.204,18.661 19.807,14.5 C26.49,9.597 67.794,6.413 66.247,8.753 C61.185,16.458 62.304,20.425 61.762,22.468 M11.36,28.769 C8.341,31.931 6.309,36.588 5.305,36 C4.095,35.304 7.736,32.553 10.436,28.072 C13.13,23.609 14.448,22.725 15.287,23.09 C16.126,23.449 14.368,25.613 11.36,28.769 M28.334,6.687 C20.503,9.124 17.416,12.554 15.669,12.303 C15.669,12.303 5.025,4.136 3.621,4.427 C2.223,4.718 3.187,8.206 3.923,9.164 C3.923,9.164 9.767,14.928 10.743,14.905 C11.719,14.888 11.359,15.972 11.04,16.206 C10.715,16.452 10.212,16.857 10.532,17.758 C10.846,18.66 11.748,19.967 10.84,20.646 C9.927,21.319 5.076,20.937 4.938,18.568 C4.801,16.188 5.149,11.822 4.059,10.401 C2.963,8.986 0.932,7.719 0.675,10.515 C0.424,13.317 -0.518,17.952 2.553,22.706 C4.813,26.205 6.822,25.685 6.605,26.399 C6.365,27.106 3.003,28.967 2.89,33.156 C2.764,37.351 3.09,36.461 3.58,38.578 C4.174,41.129 7.255,38.601 8.368,38.122 C10.075,37.374 11.433,36.912 13.06,34.766 C17.072,29.43 17.717,26.547 19.675,26.701 C21.633,26.861 30.924,34.406 57.857,30.542 C84.784,26.684 90.828,20.006 94.652,18.465 C97.266,17.483 97.437,21.952 99.737,23.288 C99.737,23.288 100.935,23.453 101.432,20.914 C101.918,18.37 86.611,-12.381 28.334,6.687" id="Shape"></path>
                    <path d="M77.413,11.181 C76.717,11.244 75.575,12.049 76.077,13.099 C76.573,14.143 75.854,16.312 76.345,16.546 C76.841,16.775 78.365,15.496 78.691,14.651 C79.016,13.807 78.811,11.061 77.413,11.181" id="Shape"></path>
                    <path d="M147.699,18.067 C146.843,19.591 131.091,33.02 128.796,32.906 C125.092,33.557 123.231,25.156 124.384,20.344 C132.278,14.734 148.481,16.652 147.699,18.067 M113.25,42.352 C112.32,41.764 120.002,31.856 119.596,30.424 C119.196,29.003 113.563,37.547 112.713,37.798 C111.857,38.061 112.725,36.114 110.864,36.297 C107.428,39.602 106.612,43.317 105.99,46.268 C102.452,50.172 73.287,60.799 70.77,58.499 C68.253,56.188 78.577,46.011 88.52,38.621 C98.462,31.224 119.368,19.775 119.705,22.076 C121.035,31.093 125.235,34.523 125.304,35.711 C125.366,36.89 114.174,42.934 113.25,42.352 M57.895,62.082 C56.919,63.178 55.281,62.282 53.814,62.105 C52.359,61.928 50.686,58.778 51.582,58.201 C52.472,57.624 51.582,58.201 55.115,59.948 C58.659,61.705 57.895,62.082 57.895,62.082 M122.068,16.589 C94.804,24.922 71.86,46.261 65.56,57.55 C62.552,60.963 55.053,50.405 51.326,52.95 C51.326,52.95 49.306,52.208 49.231,57.013 C49.174,58.366 48.232,56.728 47.827,58.337 C47.416,59.935 49.962,69.775 59.556,66.567 C59.556,66.567 61.223,65.956 61.285,66.755 C61.354,67.56 57.581,80.401 64.584,80.509 C67.015,80.549 64.504,76.776 64.065,76.588 C63.625,76.4 63.146,63.884 67.992,63.604 C71.73,64.534 62.273,73.546 69.887,84.27 C71.707,85.52 70.001,65.744 72.889,64.083 C72.889,64.083 78.676,64.043 86.609,61.72 C94.525,59.403 134.727,40.957 150.656,20.879 C150.656,20.879 152.294,18.739 153.983,20.194 C154.782,20.999 154.982,20.976 155.284,20.782 L155.307,18.921 C155.307,18.924 149.331,8.251 122.068,16.589" id="Shape"></path>
                </g>
                <path d="M1032.808,9.562 C1032.083,9.682 1031.729,8.524 1031.256,8.735 C1030.109,9.26 1030.417,9.312 1030.109,10.156 C1029.784,11.018 1031.678,15.367 1032.323,15.201 C1032.974,15.036 1032.859,14.624 1032.922,14.008 C1032.996,13.391 1034.737,11.702 1034.691,10.732 C1034.662,9.756 1033.521,9.431 1032.808,9.562" id="Shape" fill="#9E1D22"></path>
                <path d="M1092.226,108.231 C1092.226,108.231 1092.677,110.463 1088.214,108.231 C1083.808,106.028 1082.296,104.55 1062.457,104.647 C1062.211,104.658 1061.961,104.658 1061.709,104.658 C1061.709,104.658 1057.851,89.916 1057.246,85.008 C1056.652,80.099 1055.614,70.123 1052.931,66.545 C1052.931,66.545 1057.548,66.106 1070.053,67.59 C1082.552,69.085 1104,72.504 1107.122,71.756 C1107.122,71.756 1099.976,88.729 1092.226,108.231 M1078.146,116.079 C1078.602,116.239 1078.602,116.502 1078.739,116.85 C1075.829,116.998 1072.798,116.314 1069.842,116.182 C1069.734,115.377 1073.278,114.584 1070.715,114.298 C1069.362,114.15 1067.701,114.184 1066.377,114.281 C1066.24,112.991 1069.214,112.54 1069.921,111.964 C1068.408,111.753 1066.04,111.947 1064.83,112.843 C1064.368,112.17 1063.009,110.829 1063.026,110.069 C1065.206,109.966 1067.17,110.64 1069.333,110.851 C1071.878,111.119 1074.43,111.485 1076.975,111.85 C1080.77,112.363 1084.851,113.128 1088.469,113.967 L1088.692,113.739 C1088.51,114.892 1087.305,115.069 1086.284,114.715 C1085.856,114.567 1085.137,113.745 1084.669,113.836 C1084.235,113.933 1084.355,114.544 1084.098,114.607 C1083.162,114.87 1082.357,113.477 1081.324,113.511 C1080.365,113.534 1080.885,113.951 1080.303,114.162 C1079.881,114.316 1079.202,114.179 1078.773,114.202 C1079.219,115.548 1080.429,116.079 1078.146,116.079 M1090.594,131.386 C1090.554,132.562 1090.275,133.606 1089.618,134.611 C1089.047,135.484 1088.608,136.689 1087.912,137.436 C1086.519,138.931 1084.116,139.856 1082.222,140.529 C1081.263,140.883 1080.43,141.613 1079.517,141.899 C1078.398,142.247 1077.057,142.093 1075.881,142.093 C1073.644,142.093 1071.081,142.27 1068.952,141.756 C1066.863,141.259 1064.192,141.179 1062.486,140.004 C1060.802,138.84 1058.793,136.642 1058.086,134.736 C1057.344,132.762 1058.012,130.615 1058.189,128.612 C1058.297,127.425 1058.474,126.523 1059.085,125.547 C1059.604,124.72 1059.913,123.795 1060.352,123.019 C1061.453,123.019 1062.509,122.779 1063.622,122.779 C1064.107,122.779 1065.112,122.973 1065.58,122.779 C1066.014,122.608 1066.099,122.117 1066.59,121.814 C1067.326,122.225 1068.011,122.71 1068.713,123.035 C1069.7,123.48 1070.899,123.583 1071.921,123.794 C1073.799,124.148 1075.619,124.662 1077.4,125.01 C1079.049,125.347 1080.825,125.672 1082.554,125.912 C1083.781,126.077 1086.116,126.448 1087.148,126.043 C1087.285,125.963 1087.211,125.912 1087.245,125.792 L1087.245,126.026 C1087.222,126.037 1087.182,126.037 1087.148,126.043 C1087.296,126.362 1087.816,127.19 1088.107,127.361 C1088.603,127.664 1089.203,127.361 1089.676,127.607 C1090.748,128.167 1090.628,130.336 1090.594,131.386 M1132.588,66.1 C1131.8,65.147 1129.215,64.622 1128.067,64.359 C1126.498,63.994 1124.968,63.383 1123.376,63.423 C1121.681,63.469 1119.929,64.416 1118.485,65.409 C1117.868,65.831 1116.019,67.058 1115.186,66.676 C1114.541,66.385 1113.942,64.159 1113.205,63.577 C1112.492,62.977 1111.824,62.898 1111.27,62.253 C1110.665,61.545 1110.591,59.262 1110.054,58.258 C1108.359,55.045 1103.69,47.791 1099.519,48.384 C1099.393,52.196 1101.71,56.768 1101.608,60.449 C1092.031,60.94 1081.244,60.597 1071.645,60.597 C1065.983,60.597 1061.126,61.653 1055.465,61.345 C1054.158,61.265 1054.26,60.563 1053.981,59.262 C1053.793,58.44 1053.941,57.327 1054.306,56.614 C1055.27,54.725 1056.206,54.639 1057.987,52.408 C1060.002,49.891 1063.318,40.32 1062.456,39.909 C1062.456,39.909 1060.35,40.486 1058.735,41.844 C1057.074,43.243 1056.766,44.121 1055.02,45.411 C1052.857,47.004 1051.31,48.653 1049.957,50.924 C1048.673,53.07 1047.183,55.29 1046.533,57.767 C1046.019,59.719 1048.102,60.484 1047.994,62.504 C1046.653,62.578 1045.614,62.618 1044.484,63.126 C1043.577,63.514 1043.713,64.068 1042.429,63.765 C1041.916,63.645 1041.259,63.149 1040.728,62.943 C1038.445,62.036 1033.24,59.912 1031.151,62.053 C1028.166,65.124 1032.264,67.686 1034.41,69.222 C1036.134,70.454 1037.629,71.71 1039.17,73.114 C1040.369,74.216 1043.262,75.22 1044.295,76.447 C1046.361,78.913 1045.705,82.188 1046.978,85.008 C1047.611,86.423 1047.702,87.496 1048.291,88.917 C1048.885,90.366 1048.827,91.902 1049.369,93.357 C1051.932,100.297 1055.573,107.711 1055.139,115.205 C1054.882,115.388 1055.196,116.575 1054.945,117.311 C1054.631,118.201 1053.741,118.698 1053.415,119.109 C1052.496,120.256 1051.531,121.364 1050.818,122.63 C1049.254,125.375 1048.01,129.256 1048.021,132.492 C1048.027,137.132 1049.71,140.414 1051.919,144.369 C1054.008,148.09 1057.353,148.227 1061.268,149.911 C1065.925,151.908 1071.844,154.049 1076.952,152.765 C1079.275,152.188 1080.879,152.942 1083.11,152.148 C1085.267,151.383 1087.533,149.055 1089.553,147.976 C1093.691,145.75 1096.373,142.742 1098.474,138.719 C1100.455,134.935 1101.528,130.346 1100.597,125.94 C1100.243,124.274 1098.365,120.061 1096.573,119.513 C1096.322,115.672 1097.686,112.841 1099.039,109.388 C1100.723,105.067 1101.995,100.604 1103.251,96.176 C1104.449,91.941 1106.378,87.729 1108.051,83.688 C1108.645,82.244 1109.198,80.772 1109.655,79.202 C1110.06,77.838 1110.169,75.96 1111.11,74.773 C1112.531,72.975 1116.766,74.294 1119.02,74.294 C1123.118,74.294 1128.522,73.05 1131.719,69.973 C1132.588,69.13 1133.552,67.281 1132.588,66.1" id="Shape" fill="#9E1D22"></path>
                <path d="M1069.38,81.25 C1068.158,80.6 1067.405,80.086 1065.933,80.154 C1065.699,81.255 1064.574,81.524 1064.472,82.808 C1064.381,83.87 1065.208,85.062 1066.293,85.371 C1067.086,85.599 1068.314,84.429 1068.827,83.841 C1069.495,83.093 1069.381,82.374 1069.381,81.364" id="Shape" fill="#9E1D22"></path>
                <path d="M1093.941,82.923 C1093.153,82.923 1091.886,82.678 1091.15,82.923 C1089.974,83.323 1090.745,83.859 1090.391,84.71 C1090.014,85.572 1089.09,85.475 1089.032,86.605 C1088.998,87.37 1089.438,87.958 1089.723,88.614 C1090.054,89.385 1090.185,90.606 1091.167,90.743 C1092.115,90.874 1092.68,89.778 1093.41,89.356 C1093.821,89.111 1094.454,89.088 1094.808,88.848 C1095.43,88.42 1095.053,88.437 1095.282,87.844 C1095.413,87.519 1095.841,86.828 1095.859,86.503 C1095.876,86.195 1095.396,85.818 1095.414,85.43 C1096.47,84.682 1094.147,83.958 1094.273,82.924" id="Shape" fill="#9E1D22"></path>
                <path d="M41,101.529 C43.945,120.415 30.624,131.31 21.201,143.718 C26.372,142.228 36.93,137.971 45.44,137.429 C47.66,137.246 50.069,138.548 52.1,139.09 C54.137,139.649 55.233,137.971 56.729,139.278 C57.642,143.159 57.83,146.852 57.271,150.173 C55.981,157.769 49.692,168.705 37.866,184.993 C36.559,188.126 36.559,190.158 35.623,190.346 C35.252,190.534 34.898,190.346 34.71,189.598 C28.238,173.686 43.408,162.038 46.353,149.259 C47.454,147.039 42.849,147.975 41,148.534 C33.592,150.006 20.1,156.855 13.793,159.258 C12.509,157.226 13.234,157.226 13.981,155.006 C14.54,152.786 13.981,150.566 14.911,148.345 C19.169,137.969 26.742,127.616 34.71,117.258 C34.71,114.125 32.49,109.102 29.339,109.102 C22.114,109.102 10.825,113.188 1.031,116.698 C-0.259,116.886 1.219,115.037 2.15,113.006 C2.88,111.528 2.521,109.308 3.811,108.001 C8.794,102.648 17.674,99.497 22.508,98.584 C26.931,97.648 28.404,99.868 31.931,99.868 C35.812,99.868 40.441,99.497 41,101.529" id="Shape" fill="#9E1D22"></path>
                <path d="M128.738,157.876 L145.049,157.876 L145.049,125.162 C145.049,118.764 142.937,118.016 137.675,115.911 C136.111,115.277 135.569,114.119 135.774,113.503 C135.997,113.075 136.316,112.344 138.2,112.344 C141.784,112.344 145.682,113.822 149.358,114.975 C151.356,115.591 151.766,116.43 151.356,117.703 C150.814,118.97 150.608,120.968 150.608,123.69 L150.608,197.731 C150.608,205.082 151.036,211.503 147.361,211.503 C144.935,211.503 145.05,207.188 145.05,203.404 L145.05,162.072 L128.739,162.072 L128.739,193.833 C128.739,201.727 129.264,207.713 125.589,207.713 C123.272,207.713 123.272,203.627 123.272,199.506 L123.272,129.158 C123.272,122.965 121.372,122.423 116.127,120.334 C114.655,119.604 114.449,118.559 114.769,117.908 C114.86,117.383 115.288,116.339 118.758,116.858 C120.533,117.292 125.698,118.65 127.382,119.381 C129.38,120.015 129.899,120.968 129.471,122.121 C128.969,123.485 128.741,125.483 128.741,127.999 L128.741,157.876 L128.738,157.876 Z M103.512,153.658 L80.055,153.658 L80.055,174.37 L103.512,174.37 L103.512,153.658 Z M79.946,178.062 C79.855,180.374 79.427,182.485 77.109,182.485 C74.272,182.485 74.387,177.428 74.387,175.225 L74.387,140.633 C74.387,137.163 72.481,135.89 69.644,135.051 C68.377,134.737 67.652,133.892 67.652,133.168 C67.652,132.329 68.6,131.49 70.694,131.696 C73.211,131.902 75.522,132.421 78.376,133.26 C79.946,133.894 80.579,134.847 80.579,135.686 C80.373,136.525 80.06,137.798 80.06,139.048 L80.06,149.778 L103.511,149.778 L103.511,136.623 C103.511,133.261 101.513,131.995 98.454,131.264 C95.937,130.63 95.509,127.48 99.727,127.794 C102.969,127.908 104.761,128.336 107.301,129.158 C109.076,129.677 109.709,130.853 109.504,131.903 C109.276,132.947 108.979,134.625 108.979,136.32 L108.979,172.39 C108.979,175.432 108.871,178.383 108.123,180.152 C107.507,181.739 105.715,182.372 104.333,181.196 C103.717,180.58 103.608,179.313 103.511,178.063 L79.946,178.063 L79.946,178.062 Z" id="Shape" fill="#000000"></path>
                <path d="M219.405,146.831 C219.405,137.893 212.037,132.312 203.213,132.312 C194.161,132.312 186.491,137.78 186.491,146.831 C186.491,155.769 194.162,161.756 203.099,161.756 C212.037,161.756 219.405,156.083 219.405,146.831 L219.405,146.831 Z M200.377,126.325 C198.899,125.28 198.265,125.691 197.54,125.166 C196.907,124.846 196.907,123.596 197.54,122.963 C197.854,122.535 198.699,122.33 199.943,122.33 C201.421,122.33 206.158,122.421 207.203,123.489 C207.933,124.008 208.042,125.281 207.728,125.692 C207.317,126.326 206.586,126.434 206.455,127.164 C206.255,128.003 206.997,128.751 207.728,128.842 C218.047,129.886 225.603,137.26 225.603,146.831 C225.603,158.919 214.988,165.865 203.099,165.865 C191.005,165.865 180.595,158.811 180.595,146.94 C180.595,136.849 188.283,129.886 198.265,128.751 C201.324,128.414 201.529,126.736 200.377,126.325 L200.377,126.325 Z M249.579,197.621 C249.579,204.989 249.693,211.187 246.628,211.187 C244.225,211.187 244.111,207.306 244.111,203.402 L244.111,177.839 C228.25,180.47 208.68,183.215 193.225,183.963 C190.28,184.054 187.329,184.893 184.927,185.937 C182.501,187.113 177.759,185.937 171.138,182.895 C168.712,181.851 168.615,181.423 168.615,180.789 C168.712,179.425 169.774,179.014 173.244,179.219 C182.61,179.425 191.21,179.425 200.262,179.014 C214.142,178.38 231.704,176.366 244.111,174.482 L244.111,124.96 C244.111,118.653 241.388,117.814 235.921,115.48 C234.243,114.863 233.906,113.802 234.243,113.186 C234.54,112.438 235.287,112.027 236.646,112.027 C238.644,112.027 244.745,113.596 248.42,114.755 C250.326,115.389 250.754,116.114 250.326,117.386 C249.801,118.653 249.578,120.651 249.578,123.373 L249.578,197.621 L249.579,197.621 Z" id="Shape" fill="#000000"></path>
                <path d="M377.8,175.952 C377.8,183.115 377.908,188.263 374.758,188.263 C372.241,188.263 372.332,184.679 372.332,181.848 L372.332,124.86 C372.332,118.742 370.129,117.903 364.553,115.608 C362.761,114.86 362.441,113.702 362.761,113.291 C362.966,112.863 363.394,112.23 365.187,112.23 C367.704,112.23 373.919,113.702 376.641,114.656 C378.433,115.29 378.952,116.22 378.525,117.493 C378.006,118.743 377.8,120.758 377.8,123.48 L377.8,175.952 L377.8,175.952 Z M339.829,208.135 C334.361,208.135 329.008,207.707 329.008,200.875 L329.008,188.673 C329.008,184.045 327.438,183.525 323.107,182.572 C321.954,182.384 319.957,182.161 319.957,180.688 C319.957,179.01 321.749,178.691 323.952,178.582 C327.234,178.485 328.912,178.582 332.159,179.01 C334.676,179.421 335.835,180.574 335.629,181.641 C335.11,182.685 334.996,184.272 334.996,186.041 L334.996,200.446 C334.996,203.505 336.468,204.236 339.322,204.236 L363.6,204.236 C365.501,204.236 367.39,204.031 369.382,202.986 C371.602,201.605 377.686,201.713 380.317,202.238 C383.696,202.986 384.215,204.144 384.215,205.822 C384.215,207.705 382.429,208.134 379.592,208.134 L339.829,208.134 L339.829,208.135 Z M341.621,146.411 C341.621,137.679 334.995,131.052 325.424,131.052 C315.87,131.052 309.341,137.678 309.341,146.411 C309.341,155.777 316.281,161.861 325.327,161.861 C334.584,161.86 341.621,156.079 341.621,146.411 L341.621,146.411 Z M322.81,125.065 C321.223,124.226 320.795,124.546 320.065,124.004 C319.546,123.593 319.432,122.526 320.065,121.801 C320.385,121.39 321.224,121.276 322.491,121.167 C324.078,121.053 328.484,121.39 329.642,122.434 C330.481,123.165 330.481,124.004 330.161,124.432 C329.75,124.951 329.413,125.385 329.208,126.11 C329.117,126.858 329.208,127.697 330.161,127.788 C340.463,129.152 347.831,136.634 347.831,146.302 C347.831,158.818 337.101,166.078 325.327,166.078 C313.667,166.078 303.143,158.71 303.143,146.411 C303.143,136.001 310.922,129.061 320.91,127.697 C323.746,127.269 323.746,125.591 322.81,125.065 L322.81,125.065 Z" id="Shape" fill="#000000"></path>
                <path d="M478.655,159.549 C478.655,166.711 478.769,172.065 475.71,172.065 C473.302,172.065 473.187,168.075 473.187,165.444 L473.187,125.065 C473.187,118.759 471.081,117.92 465.499,115.603 C463.821,114.969 463.616,113.925 463.821,113.291 C464.026,112.543 464.677,112.132 466.041,112.132 C467.925,112.132 473.934,113.587 477.404,114.763 C479.288,115.397 479.813,116.235 479.385,117.485 C478.877,118.758 478.655,120.756 478.655,123.478 L478.655,159.549 Z M436.392,203.621 L470.67,203.621 L470.876,181.117 L436.056,181.117 L436.392,203.621 Z M469.198,177.122 C470.762,176.785 471.92,176.06 473.393,175.741 C474.871,175.535 476.024,175.535 477.611,176.152 C480.019,177.219 480.333,178.372 479.18,179.011 C477.816,179.645 477.297,180.575 477.182,182.276 L474.774,203.507 C476.024,203.621 477.182,203.621 478.227,204.032 C479.18,204.666 478.878,207.388 477.702,207.502 C476.658,207.725 475.613,207.725 474.46,207.725 L436.489,207.725 C436.392,209.294 436.186,210.972 434.491,210.972 C432.699,210.972 432.174,209.928 431.968,207.502 L429.971,183.84 C429.657,180.165 426.706,179.645 424.19,179.211 C422.826,179.103 422.512,177.853 423.237,177.219 C423.968,176.694 425.029,176.06 427.455,175.946 C429.863,175.946 431.969,176.06 433.762,176.488 C435.645,177.013 435.965,177.122 437.329,177.122 L469.198,177.122 L469.198,177.122 Z M403.478,169.343 C400.961,170.816 399.688,170.907 399.169,169.845 C399.055,169.639 398.946,169.343 398.946,169.12 C398.946,168.389 399.579,167.55 401.052,166.711 C412.21,159.138 425.348,145.046 431.021,131.686 C432.699,127.788 431.654,126.316 427.545,123.793 C426.187,123.274 425.439,121.801 426.187,120.757 C426.615,120.232 427.545,119.804 429.229,120.232 C431.655,120.866 434.919,122.954 437.122,124.433 C439.114,125.905 440.181,127.27 439.844,127.903 C437.436,133.571 434.599,138.108 431.226,143.147 L441.859,151.765 C442.584,152.176 443.743,152.307 444.17,152.398 C444.786,152.512 446.784,153.243 447.846,154.082 C449.844,155.777 452.269,157.98 454.158,161.336 C455.203,163.333 455.106,164.92 453.838,165.24 C452.474,165.651 451.002,164.921 448.576,162.814 C443.947,158.819 434.171,150.834 428.817,146.394 C424.076,153.351 412.416,164.606 403.478,169.343 L403.478,169.343 Z" id="Shape" fill="#000000"></path>
                <path d="M554.297,145.378 C551.164,151.856 547.825,163.87 546.141,173.686 C545.599,175.906 545.228,179.245 547.636,178.314 C557.059,175.552 565.026,170.176 569.632,164.263 C570.568,163.144 570.568,161.855 570.026,160.194 C567.435,154.076 556.706,145.943 554.297,145.378 M562.618,104.685 C563.16,100.41 558.549,97.648 554.856,98.19 C552.99,98.19 547.825,103.755 546.889,105.786 C545.416,108.194 542.26,116.887 543.196,118.736 C544.857,123.924 550.77,128.547 552.801,130.955 C557.248,123.736 562.076,110.786 562.618,104.685 M571.687,98.937 C572.617,117.823 565.751,127.245 562.247,136.685 C566.499,138.346 570.214,140.212 573.348,142.598 C575.585,144.259 577.417,146.108 579.078,148.162 C580.379,150.194 582.228,151.855 582.788,153.533 C583.347,155.57 581.858,157.043 581.127,158.704 C575.756,169.993 562.618,185.351 547.637,189.226 C545.229,189.785 543.939,189.974 541.701,188.69 C540.788,188.125 539.127,188.296 538.568,187.006 C537.82,185.534 537.655,184.044 537.096,182.566 C534.688,173.143 539.67,157.043 543.38,148.516 C544.687,145.377 546.142,142.598 545.6,140.378 C545.041,137.616 540.058,135.567 537.655,134.277 C535.971,133.552 534.876,132.434 533.94,130.75 C532.279,127.617 532.279,124.295 533.94,120.956 C537.096,108.377 546.519,95.969 559.109,89.497 C560.399,88.767 561.517,88.584 562.807,88.767 C564.28,88.955 565.398,90.057 566.688,91.364 C568.719,93.396 571.128,95.427 571.687,98.937" id="Shape" fill="#9E1D22"></path>
                <path d="M652.581,157.876 L668.892,157.876 L668.892,125.162 C668.892,118.764 666.78,118.016 661.518,115.911 C659.948,115.277 659.412,114.119 659.617,113.503 C659.84,113.075 660.153,112.344 662.043,112.344 C665.622,112.344 669.525,113.822 673.178,114.975 C675.198,115.591 675.604,116.43 675.198,117.703 C674.673,118.97 674.45,120.968 674.45,123.69 L674.45,197.731 C674.45,205.082 674.861,211.503 671.185,211.503 C668.776,211.503 668.891,207.188 668.891,203.404 L668.891,162.072 L652.58,162.072 L652.58,193.833 C652.58,201.727 653.105,207.713 649.447,207.713 C647.113,207.713 647.113,203.627 647.113,199.506 L647.113,129.158 C647.113,122.965 645.212,122.423 639.968,120.334 C638.495,119.604 638.29,118.559 638.604,117.908 C638.701,117.383 639.129,116.339 642.599,116.858 C644.374,117.292 649.522,118.65 651.217,119.381 C653.215,120.015 653.74,120.968 653.312,122.121 C652.804,123.485 652.582,125.483 652.582,127.999 L652.582,157.876 L652.581,157.876 Z M627.355,153.658 L603.898,153.658 L603.898,174.37 L627.355,174.37 L627.355,153.658 Z M603.807,178.062 C603.693,180.374 603.265,182.485 600.953,182.485 C598.116,182.485 598.225,177.428 598.225,175.225 L598.225,140.633 C598.225,137.163 596.325,135.89 593.488,135.051 C592.221,134.737 591.473,133.892 591.473,133.168 C591.473,132.329 592.426,131.49 594.532,131.696 C597.055,131.902 599.366,132.421 602.22,133.26 C603.807,133.894 604.423,134.847 604.423,135.686 C604.218,136.525 603.898,137.798 603.898,139.048 L603.898,149.778 L627.355,149.778 L627.355,136.623 C627.355,133.261 625.357,131.995 622.298,131.264 C619.781,130.63 619.347,127.48 623.565,127.794 C626.812,127.908 628.604,128.336 631.144,129.158 C632.913,129.677 633.547,130.853 633.341,131.903 C633.118,132.947 632.805,134.625 632.805,136.32 L632.805,172.39 C632.805,175.432 632.708,178.383 631.983,180.152 C631.35,181.739 629.557,182.372 628.176,181.196 C627.543,180.58 627.446,179.313 627.354,178.063 L603.807,178.063 L603.807,178.062 Z" id="Shape" fill="#000000"></path>
                <path d="M743.244,146.831 C743.244,137.893 735.876,132.312 727.052,132.312 C718.017,132.312 710.33,137.78 710.33,146.831 C710.33,155.769 718.018,161.756 726.938,161.756 C735.876,161.756 743.244,156.083 743.244,146.831 L743.244,146.831 Z M724.216,126.325 C722.738,125.28 722.104,125.691 721.379,125.166 C720.746,124.846 720.746,123.596 721.379,122.963 C721.693,122.535 722.532,122.33 723.788,122.33 C725.278,122.33 729.998,122.421 731.042,123.489 C731.79,124.008 731.881,125.281 731.567,125.692 C731.156,126.326 730.425,126.434 730.3,127.164 C730.095,128.003 730.836,128.751 731.567,128.842 C741.886,129.886 749.442,137.26 749.442,146.831 C749.442,158.919 738.826,165.865 726.938,165.865 C714.844,165.865 704.434,158.811 704.434,146.94 C704.434,136.849 712.122,129.886 722.104,128.751 C725.169,128.414 725.369,126.736 724.216,126.325 L724.216,126.325 Z M773.419,197.621 C773.419,204.989 773.533,211.187 770.474,211.187 C768.043,211.187 767.952,207.306 767.952,203.402 L767.952,177.839 C752.091,180.47 732.521,183.215 717.071,183.963 C714.12,184.054 711.192,184.893 708.767,185.937 C706.318,187.113 701.621,185.937 694.978,182.895 C692.552,181.851 692.455,181.423 692.455,180.789 C692.552,179.425 693.614,179.014 697.084,179.219 C706.45,179.425 715.073,179.425 724.102,179.014 C737.982,178.38 755.544,176.366 767.951,174.482 L767.951,124.96 C767.951,118.653 765.228,117.814 759.761,115.48 C758.077,114.863 757.763,113.802 758.077,113.186 C758.38,112.438 759.127,112.027 760.485,112.027 C762.483,112.027 768.584,113.596 772.259,114.755 C774.165,115.389 774.593,116.114 774.165,117.386 C773.623,118.653 773.417,120.651 773.417,123.373 L773.417,197.621 L773.419,197.621 Z" id="Shape" fill="#000000"></path>
                <path d="M884.281,149.144 L899.417,149.144 L899.417,125.162 C899.417,118.747 897.328,118.016 892.066,115.91 C890.496,115.18 889.84,114.118 890.177,113.484 C890.383,113.073 890.908,112.44 892.808,112.44 C896.056,112.44 901.095,114.027 903.835,114.957 C905.724,115.591 906.152,116.429 905.724,117.702 C905.216,118.969 904.993,120.949 904.993,123.689 L904.993,164.068 C904.993,169.535 905.421,177.132 901.746,177.132 C899.32,177.132 899.417,172.8 899.417,169.741 L899.417,153.156 L884.281,153.156 L884.281,157.442 C884.281,162.482 884.937,169.536 881.239,169.65 C878.928,169.741 878.814,166.083 878.814,162.704 L878.814,129.157 C878.814,122.964 876.913,122.422 871.668,120.333 C870.104,119.603 869.876,118.541 870.196,117.907 C870.402,117.382 871.035,116.337 874.3,116.954 C876.075,116.954 881.24,118.655 883.032,119.38 C884.938,120.013 885.44,120.949 885.012,122.217 C884.504,123.484 884.281,125.39 884.281,127.999 L884.281,149.144 L884.281,149.144 Z M894.805,195.191 C894.805,187.298 887.865,182.167 878.499,182.167 C869.653,182.167 862.615,187.298 862.615,195.305 C862.615,203.084 869.356,208.124 878.607,208.124 C887.865,208.124 894.805,203.29 894.805,195.191 L894.805,195.191 Z M876.724,176.797 C876.501,175.844 875.548,175.319 874.093,175.119 C873.345,175.005 872.826,173.96 873.345,173.23 C873.779,172.694 874.298,172.374 875.548,172.374 C878.179,172.374 881.558,173.122 882.922,174.372 C883.441,174.914 883.441,175.525 883.128,176.164 C882.809,176.798 881.559,178.681 883.031,178.795 C893.013,179.634 900.889,186.688 900.889,195.101 C900.889,206.35 889.543,212.138 878.608,212.138 C868.089,212.138 856.521,206.562 856.521,195.193 C856.521,185.827 865.253,179.635 874.094,178.796 C875.868,178.588 877.044,177.841 876.724,176.797 L876.724,176.797 Z M860.715,158.288 C860.715,151.867 855.156,147.353 847.691,147.353 C840.226,147.353 834.667,151.868 834.667,158.191 C834.667,164.703 839.912,169.24 847.691,169.24 C854.631,169.24 860.715,164.908 860.715,158.288 L860.715,158.288 Z M844.239,122.218 C846.122,122.423 849.689,122.218 853.479,122.218 C857.155,122.332 857.583,123.485 857.674,124.529 C857.897,126.321 856.721,127.366 853.998,127.366 C848.85,127.594 849.37,127.594 843.177,127.48 C840.004,127.366 838.029,126.008 834.125,123.896 C832.858,123.057 832.333,121.693 833.177,121.076 C834.222,119.809 836.008,120.745 837.914,121.282 C840.546,121.807 842.001,122.12 844.239,122.218 L844.239,122.218 Z M866.52,158.396 C866.52,166.181 859.58,173.229 847.806,173.229 C835.803,173.229 828.886,166.38 828.886,158.19 C828.886,150.502 835.392,143.357 847.691,143.357 C860.082,143.357 866.52,150.617 866.52,158.396 L866.52,158.396 Z M871.034,137.256 C870.714,139.476 869.561,139.476 867.769,139.368 C864.727,139.254 860.829,139.162 852.936,139.162 C845.174,139.253 842.857,139.476 839.164,139.795 C836.236,140.206 834.964,140.297 832.966,141.045 C830.974,141.77 828.657,140.726 822.875,138.933 C821.397,138.522 820.763,137.575 820.763,136.844 C820.763,135.891 821.83,135.052 823.508,135.257 C828.884,135.782 831.401,136.319 837.28,136.21 C840.002,136.319 841.606,136.21 846.646,135.987 C851.383,135.89 855.155,135.479 857.673,134.509 C859.785,133.784 859.99,133.579 863.46,133.784 C866.833,134.104 867.564,134.303 868.722,134.623 C870.715,135.373 871.24,136.417 871.034,137.256 L871.034,137.256 Z" id="Shape" fill="#000000"></path>
                <path d="M987.679,132.846 L949.931,132.846 L949.931,146.931 L987.679,146.931 L987.679,132.846 Z M995.983,200.563 C995.983,206.35 995.983,210.973 993.038,210.973 C990.63,210.973 990.31,207.914 990.31,204.667 L990.31,183.436 L961.391,183.938 C957.898,184.052 955.809,184.275 953.178,185.319 C950.233,186.363 946.238,185.953 939.726,182.802 C938.476,182.054 937.209,181.324 937.729,179.942 C938.231,178.692 939.407,178.898 943.813,179.309 C948.236,179.942 955.81,180.171 967.378,179.942 C978.741,179.736 986.189,179.736 987.999,179.309 C989.996,178.79 990.407,178.487 991.452,177.945 C992.514,177.54 998.934,178.379 997.142,180.262 C996.303,181.215 995.983,182.482 995.983,184.274 L995.983,200.563 L995.983,200.563 Z M965.7,164.607 L965.7,150.727 L949.931,150.727 C949.822,152.496 948.869,154.402 946.986,154.402 C944.241,154.402 944.132,151.154 944.132,147.142 L944.132,126.208 C944.132,122.55 941.61,121.168 938.664,120.644 C936.05,119.919 936.164,116.54 940.251,116.968 C942.973,117.065 944.874,117.493 947.619,118.446 C949.388,119.079 950.136,119.918 950.136,120.757 C949.931,121.801 949.931,122.96 949.931,124.318 L949.931,129.061 L987.679,129.061 L987.679,122.121 C987.679,118.645 984.94,117.173 982.211,116.539 C979.786,116.02 979.472,113.069 983.05,113.069 C985.778,113.069 988.501,113.48 991.263,114.433 C993.146,115.084 993.877,115.814 993.671,116.761 C993.449,117.806 993.449,119.375 993.449,121.167 L993.449,145.052 C993.449,147.774 993.352,149.977 992.627,151.764 C991.971,153.448 990.201,154.287 988.82,153.145 C987.884,152.403 987.776,151.45 987.678,150.725 L971.595,150.725 L971.595,164.605 L989.025,164.491 C995.331,164.605 996.393,164.177 997.888,163.652 C1001.878,162.18 1002.18,162.18 1008.39,162.385 C1014.811,162.476 1017.328,163.972 1017.328,166.397 C1017.328,167.55 1016.061,168.486 1013.636,168.691 C1010.914,168.8 1009.435,168.8 1006.599,168.8 C1002.182,168.486 1000.595,168.281 995.875,168.281 C992.085,168.281 980.311,168.167 947.192,168.395 C943.494,168.281 943.18,168.8 937.73,170.592 C935.099,171.437 931.218,170.369 923.011,167.328 C922.058,167.014 921.647,166.078 921.647,165.33 C921.647,164.286 922.577,163.316 924.164,163.538 C928.479,163.972 931.218,164.286 933.946,164.491 C936.257,164.697 940.047,164.605 943.084,164.605 L965.7,164.605 L965.7,164.607 Z" id="Shape" fill="#000000"></path>
                <path d="M31.718,65.487 C31.718,68.677 29.161,71.251 25.988,71.251 C22.798,71.251 20.207,68.677 20.207,65.487 C20.207,62.297 22.798,59.74 25.988,59.74 C29.161,59.74 31.718,62.297 31.718,65.487" id="Shape" fill="#9E1D22"></path>
                <path d="M564.655,65.487 C564.655,68.677 562.064,71.251 558.868,71.251 C555.718,71.251 553.104,68.677 553.104,65.487 C553.104,62.297 555.718,59.74 558.868,59.74 C562.064,59.74 564.655,62.297 564.655,65.487" id="Shape" fill="#9E1D22"></path>
            </g>
        </g>
    </g>
</svg>